#!OML:ASF H:\Dans Jumps\Project 1\Capture day 1\Session 1\subject.ASF
:FULLY-SPECIFIED
:DEGREES
229
root 0.30107 18.4262 -5.48784 -0.384985 3.69533 -2.75729
lowerback 5.47733 -0.619036 -1.29784
upperback 6.01634 -0.89062 1.63428
thorax 3.18634 -0.529974 2.43692
lowerneck -8.46671 0.0854095 -1.37225
upperneck 32.5084 -0.0855332 1.64096
head 12.0592 0.000379881 0.850405
rclavicle -4.32978e-015 1.65488e-014
rhumerus -11.2544 -18.1109 -87.0264
rradius 21.997
rwrist 36.0537
rhand -22.6087 -25.6607
rfingers 7.12502
rthumb 3.82097 -55.6062
lclavicle -4.32978e-015 1.65488e-014
lhumerus -2.57701 -0.587161 94.3344
lradius 20.2208
lwrist 14.7584
lhand -24.4884 -7.88461
lfingers 7.12502
lthumb 2.00564 22.0857
rfemur -25.8773 -6.26181 20.9536
rtibia 33.9865
rfoot 4.72731 -0.528437
rtoes 3.33062
lfemur -26.2378 6.70603 -15.795
ltibia 28.6968
lfoot 14.2163 -1.68174
ltoes -9.05512
230
root 0.304615 18.1786 -5.28697 -1.16105 3.59938 -2.78343
lowerback 5.02538 -0.625491 -1.25231
upperback 5.89929 -0.894905 1.59314
thorax 3.31474 -0.529795 2.36363
lowerneck -8.30695 0.0805216 -1.44984
upperneck 32.884 -0.0998358 1.701
head 12.1802 -0.00927083 0.888219
rclavicle 5.44173e-015 2.52457e-014
rhumerus -11.7759 -18.3767 -86.7863
rradius 21.7951
rwrist 36.3768
rhand -22.6605 -25.6391
rfingers 7.12502
rthumb 3.77095 -55.5855
lclavicle 5.44173e-015 2.52457e-014
lhumerus -2.88281 -0.321997 94.1063
lradius 20.1368
lwrist 14.5978
lhand -24.2939 -7.69796
lfingers 7.12502
lthumb 2.19352 22.2705
rfemur -24.7999 -6.13063 20.8587
rtibia 34.0149
rfoot 4.58245 0.325168
rtoes 4.23749
lfemur -25.2154 6.85941 -15.7233
ltibia 29.3317
lfoot 12.5875 -2.77347
ltoes -6.91452
231
root 0.307919 17.9238 -5.09215 -1.91512 3.50186 -2.79546
lowerback 4.61643 -0.627694 -1.2171
upperback 5.75969 -0.894144 1.55829
thorax 3.39609 -0.52697 2.30327
lowerneck -8.20172 0.0765525 -1.53113
upperneck 33.1863 -0.106382 1.7465
head 12.2832 -0.0174888 0.921842
rclavicle 1.29334e-014 -2.98177e-016
rhumerus -12.2951 -18.5736 -86.5312
rradius 21.6769
rwrist 36.5652
rhand -22.7229 -25.6497
rfingers 7.12502
rthumb 3.71067 -55.5971
lclavicle 1.29334e-014 -2.98177e-016
lhumerus -3.18167 -0.100761 93.8726
lradius 20.106
lwrist 14.4503
lhand -24.139 -7.56376
lfingers 7.12502
lthumb 2.34308 22.4031
rfemur -23.85 -6.02819 20.7798
rtibia 34.5256
rfoot 3.41661 1.34722
rtoes 5.27067
lfemur -24.3336 7.08849 -15.6905
ltibia 30.4623
lfoot 9.56829 -3.69285
ltoes -5.17795
232
root 0.31051 17.6678 -4.90772 -2.64488 3.42196 -2.79066
lowerback 4.28146 -0.628011 -1.20323
upperback 5.60754 -0.891806 1.53364
thorax 3.42383 -0.523805 2.26645
lowerneck -8.16672 0.0734587 -1.60531
upperneck 33.4119 -0.105936 1.77426
head 12.3698 -0.0235448 0.947947
rclavicle -7.31776e-015 8.59744e-015
rhumerus -12.7944 -18.7115 -86.2685
rradius 21.6564
rwrist 36.6266
rhand -22.7824 -25.7183
rfingers 7.12502
rthumb 3.65327 -55.6667
lclavicle -7.31776e-015 8.59744e-015
lhumerus -3.43632 0.112702 93.6502
lradius 20.109
lwrist 14.2868
lhand -24.0352 -7.49766
lfingers 7.12502
lthumb 2.44332 22.4681
rfemur -23.0701 -5.9315 20.707
rtibia 35.5928
rfoot 1.04215 2.19246
rtoes 6.24644
lfemur -23.6625 7.31037 -15.6762
ltibia 32.1312
lfoot 5.49496 -4.00361
ltoes -4.31175
233
root 0.311028 17.4158 -4.7378 -3.36133 3.37837 -2.77171
lowerback 4.07745 -0.626889 -1.22047
upperback 5.45357 -0.888731 1.51795
thorax 3.37726 -0.52094 2.258
lowerneck -8.21608 0.0631824 -1.68401
upperneck 33.5733 -0.115174 1.80856
head 12.4479 -0.0332305 0.975861
rclavicle 6.47293e-015 -1.32689e-014
rhumerus -13.2562 -18.8221 -86.0147
rradius 21.7374
rwrist 36.5931
rhand -22.8327 -25.867
rfingers 7.12502
rthumb 3.60465 -55.8163
lclavicle 6.47293e-015 -1.32689e-014
lhumerus -3.61114 0.349713 93.4443
lradius 20.1195
lwrist 14.0875
lhand -24.0052 -7.48223
lfingers 7.12502
lthumb 2.47237 22.4832
rfemur -22.495 -5.80413 20.6427
rtibia 37.224
rfoot -2.30991 2.48825
rtoes 6.81729
lfemur -23.23 7.4825 -15.6635
ltibia 34.2833
lfoot 0.985792 -3.5475
ltoes -4.45701
234
root 0.308045 17.1725 -4.58481 -4.08268 3.37916 -2.72381
lowerback 4.05327 -0.620498 -1.29881
upperback 5.32021 -0.880496 1.50416
thorax 3.25248 -0.517146 2.28788
lowerneck -8.35923 0.0406499 -1.74939
upperneck 33.671 -0.14367 1.84517
head 12.5198 -0.0489968 0.99958
rclavicle 4.26766e-015 1.88845e-015
rhumerus -13.6322 -18.9695 -85.7899
rradius 21.8881
rwrist 36.5472
rhand -22.8945 -26.1166
rfingers 7.12502
rthumb 3.54497 -56.0669
lclavicle 4.26766e-015 1.88845e-015
lhumerus -3.66889 0.63342 93.2545
lradius 20.1263
lwrist 13.8434
lhand -24.0611 -7.50221
lfingers 7.12502
lthumb 2.41836 22.4638
rfemur -22.1257 -5.63974 20.5752
rtibia 39.3371
rfoot -6.12889 2.06904
rtoes 6.74263
lfemur -23.0291 7.579 -15.6581
ltibia 36.8075
lfoot -3.35881 -2.39243
ltoes -5.0109
235
root 0.300207 16.9444 -4.45029 -4.80799 3.4213 -2.6429
lowerback 4.22788 -0.605022 -1.45704
upperback 5.22185 -0.863138 1.49022
thorax 3.05396 -0.510947 2.36465
lowerneck -8.60593 0.00153224 -1.81224
upperneck 33.7219 -0.198967 1.89525
head 12.595 -0.0741108 1.02446
rclavicle 7.88927e-016 -6.41081e-015
rhumerus -13.8831 -19.2018 -85.6077
rradius 22.068
rwrist 36.561
rhand -22.9959 -26.4534
rfingers 7.12502
rthumb 3.44708 -56.4052
lclavicle 7.88927e-016 -6.41081e-015
lhumerus -3.5982 0.969124 93.0766
lradius 20.1298
lwrist 13.5716
lhand -24.253 -7.54678
lfingers 7.12502
lthumb 2.23302 22.4213
rfemur -21.9653 -5.43686 20.5042
rtibia 41.8026
rfoot -9.86007 1.04696
rtoes 6.23
lfemur -23.0574 7.6133 -15.6608
ltibia 39.5616
lfoot -7.00181 -0.853553
ltoes -6.21763
236
root 0.287068 16.7358 -4.33367 -5.47671 3.49122 -2.52345
lowerback 4.5336 -0.574498 -1.70693
upperback 5.15966 -0.829942 1.47459
thorax 2.82076 -0.499355 2.49232
lowerneck -8.95191 -0.0567158 -1.86945
upperneck 33.7301 -0.283829 1.95352
head 12.6744 -0.110002 1.04743
rclavicle 3.31101e-015 2.57923e-014
rhumerus -13.9774 -19.5652 -85.4736
rradius 22.2281
rwrist 36.7013
rhand -23.1666 -26.8438
rfingers 7.12502
rthumb 3.2822 -56.7983
lclavicle 3.31101e-015 2.57923e-014
lhumerus -3.40166 1.33561 92.9076
lradius 20.1311
lwrist 13.3116
lhand -24.6017 -7.64941
lfingers 7.12502
lthumb 1.89622 22.3219
rfemur -22.0779 -5.19611 20.4254
rtibia 44.4639
rfoot -12.9699 -0.240351
rtoes 5.37955
lfemur -23.3288 7.61037 -15.6883
ltibia 42.414
lfoot -9.84385 0.636426
ltoes -6.32536
237
root 0.269979 16.5475 -4.2323 -6.04587 3.54844 -2.397
lowerback 4.8865 -0.524391 -2.00481
upperback 5.13223 -0.774785 1.46846
thorax 2.59725 -0.478286 2.65656
lowerneck -9.37755 -0.128524 -1.93739
upperneck 33.7135 -0.38544 2.01568
head 12.7611 -0.153645 1.07137
rclavicle -2.72397e-015 2.98177e-016
rhumerus -13.9018 -20.0637 -85.3819
rradius 22.313
rwrist 37.0139
rhand -23.4055 -27.2489
rfingers 7.12502
rthumb 3.05153 -57.2068
lclavicle -2.72397e-015 2.98177e-016
lhumerus -3.11728 1.72655 92.7483
lradius 20.1428
lwrist 13.108
lhand -25.1288 -7.83857
lfingers 7.12502
lthumb 1.38717 22.1367
rfemur -22.4491 -4.94124 20.3735
rtibia 47.1734
rfoot -15.3928 -1.50749
rtoes 4.82734
lfemur -23.828 7.61979 -15.7173
ltibia 45.2505
lfoot -12.053 1.96129
ltoes -6.09309
238
root 0.251456 16.3815 -4.14232 -6.48531 3.58757 -2.30068
lowerback 5.19071 -0.46458 -2.28957
upperback 5.14142 -0.708247 1.481
thorax 2.43823 -0.452096 2.83137
lowerneck -9.84527 -0.203717 -2.00275
upperneck 33.6611 -0.484961 2.05943
head 12.8421 -0.197935 1.08737
rclavicle -1.13928e-014 2.52457e-014
rhumerus -13.6648 -20.6909 -85.328
rradius 22.2901
rwrist 37.5206
rhand -23.665 -27.6292
rfingers 7.12502
rthumb 2.80092 -57.5905
lclavicle -1.13928e-014 2.52457e-014
lhumerus -2.78139 2.13502 92.5992
lradius 20.1545
lwrist 12.9791
lhand -25.8168 -8.18305
lfingers 7.12502
lthumb 0.722667 21.7955
rfemur -23.0199 -4.72561 20.3699
rtibia 49.7874
rfoot -17.2338 -2.57401
rtoes 4.65046
lfemur -24.4815 7.63548 -15.7134
ltibia 47.9839
lfoot -13.7652 3.05273
ltoes -6.05505
239
root 0.234882 16.237 -4.06025 -6.8046 3.61162 -2.28927
lowerback 5.40665 -0.413282 -2.47419
upperback 5.18061 -0.650275 1.52653
thorax 2.35869 -0.428927 2.98285
lowerneck -10.292 -0.272002 -2.07513
upperneck 33.5646 -0.562221 2.07357
head 12.8996 -0.236918 1.0952
rclavicle 3.1526e-015 -9.81499e-015
rhumerus -13.3007 -21.3989 -85.2988
rradius 22.1346
rwrist 38.1912
rhand -23.8975 -27.9251
rfingers 7.12502
rthumb 2.57638 -57.8893
lclavicle 3.1526e-015 -9.81499e-015
lhumerus -2.44816 2.55633 92.4611
lradius 20.1569
lwrist 12.9405
lhand -26.6232 -8.68181
lfingers 7.12502
lthumb -0.0561241 21.2979
rfemur -23.666 -4.59808 20.4445
rtibia 52.1857
rfoot -18.6122 -3.36795
rtoes 4.30102
lfemur -25.2005 7.63258 -15.6262
ltibia 50.5302
lfoot -15.1175 3.94036
ltoes -6.25744
240
root 0.223215 16.1154 -3.98299 -7.04217 3.63591 -2.39614
lowerback 5.52908 -0.383837 -2.49125
upperback 5.24795 -0.614904 1.60666
thorax 2.35963 -0.41411 3.07534
lowerneck -10.694 -0.324339 -2.146
upperneck 33.4516 -0.607808 2.06172
head 12.9396 -0.265143 1.09646
rclavicle 5.12492e-015 7.23079e-015
rhumerus -12.8626 -22.1307 -85.2863
rradius 21.8647
rwrist 38.9429
rhand -24.0453 -28.1259
rfingers 7.12502
rthumb 2.43358 -58.0917
lclavicle 5.12492e-015 7.23079e-015
lhumerus -2.1555 2.9873 92.3342
lradius 20.1297
lwrist 12.9658
lhand -27.4841 -9.27085
lfingers 7.12502
lthumb -0.887644 20.7071
rfemur -24.2467 -4.60658 20.6073
rtibia 54.2547
rfoot -19.6993 -3.85829
rtoes 3.87475
lfemur -25.8896 7.57546 -15.4281
ltibia 52.8027
lfoot -16.2337 4.63695
ltoes -6.33568
